<?xml version="1.0" standalone="no"?>
<!DOCTYPE svg PUBLIC "-//W3C//DTD SVG 20010904//EN"
 "http://www.w3.org/TR/2001/REC-SVG-20010904/DTD/svg10.dtd">
<svg version="1.0" xmlns="http://www.w3.org/2000/svg"
 width="414.000000pt" height="190.000000pt" viewBox="0 0 414.000000 190.000000"
 preserveAspectRatio="xMidYMid meet">
<g transform="translate(0.000000,190.000000) scale(0.100000,-0.100000)"
fill="#000000" stroke="none">
<path d="M3819 1562 c-69 -64 -174 -162 -232 -216 l-108 -99 -92 90 c-110 108
-151 131 -262 144 -122 15 -1335 6 -1395 -10 -125 -34 -230 -114 -272 -208
-27 -61 -28 -163 -1 -223 88 -199 363 -276 685 -193 l68 17 0 148 0 148 -150
0 -150 0 0 -55 0 -55 81 0 80 0 -3 -52 -3 -53 -60 -13 c-73 -15 -193 -9 -256
13 -54 19 -123 74 -145 117 -20 39 -21 136 -1 173 23 45 76 91 132 117 47 21
65 23 312 26 l263 4 2 -279 3 -278 72 -3 73 -3 2 278 3 278 53 3 53 3 -8 -28
c-18 -69 10 -131 80 -176 21 -14 83 -44 138 -67 149 -63 191 -113 133 -159
-51 -40 -171 -36 -258 8 l-36 19 -30 -43 c-17 -24 -30 -48 -30 -54 0 -15 101
-49 180 -62 132 -20 268 19 323 92 30 41 33 107 8 157 -27 52 -82 90 -210 143
-103 42 -161 83 -161 113 0 8 12 24 27 33 24 16 52 18 223 18 229 0 212 6 347
-123 l93 -88 -170 -169 c-94 -93 -170 -173 -170 -177 0 -5 31 -8 68 -8 l68 0
359 406 c350 395 410 464 403 464 -2 -1 -60 -53 -129 -118z"/>
<path d="M3809 1478 c-57 -68 -138 -162 -179 -209 -41 -47 -113 -130 -160
-184 -47 -54 -115 -133 -152 -174 -37 -42 -68 -80 -68 -84 0 -4 28 -7 62 -5
l62 3 71 100 c40 54 77 101 83 103 5 1 58 -43 117 -100 l107 -103 82 -5 c44
-3 83 -4 86 -2 2 1 -65 72 -150 157 -85 84 -156 158 -158 164 -3 10 18 42 147
226 204 291 206 295 50 113z"/>
<path d="M580 1539 c-133 -20 -309 -98 -400 -178 -33 -29 -29 -28 50 13 97 51
212 92 285 101 46 6 58 3 140 -38 54 -27 116 -69 154 -103 l63 -58 -28 -23
c-40 -33 -175 -106 -256 -139 -99 -40 -75 -41 29 -1 97 38 203 89 245 118 l27
19 25 -33 c27 -35 69 -124 79 -168 6 -23 0 -31 -51 -66 -141 -98 -276 -155
-507 -214 -129 -34 -141 -38 -85 -33 195 16 423 70 570 133 l93 40 -5 -67 c-5
-62 -4 -65 8 -37 7 17 19 52 26 78 10 40 20 55 56 79 25 17 69 50 98 74 l54
44 0 -68 c0 -88 -21 -168 -70 -266 -42 -83 -33 -85 25 -6 159 217 150 438 -27
615 -116 115 -263 176 -453 188 -44 3 -109 1 -145 -4z m526 -203 c32 -29 67
-67 76 -84 l18 -30 -66 -71 c-36 -39 -69 -71 -73 -71 -4 0 -15 27 -25 60 -10
32 -31 80 -47 105 -16 25 -29 49 -29 54 0 13 64 91 75 91 7 0 38 -24 71 -54z"/>
</g>
</svg>
